<?xml version="1.0" encoding="utf-8"?>
<!-- Generator: Adobe Illustrator 24.0.1, SVG Export Plug-In . SVG Version: 6.00 Build 0)  -->
<svg version="1.1" id="Capa_1" xmlns="http://www.w3.org/2000/svg" xmlns:xlink="http://www.w3.org/1999/xlink" x="0px" y="0px"
	 viewBox="0 0 1080 1080" style="enable-background:new 0 0 1080 1080;" xml:space="preserve">
<style type="text/css">
	.st0{clip-path:url(#SVGID_2_);}
	.st1{fill:#F6B2A8;}
	.st2{fill:#FFFFFF;}
	.st3{fill:#86D0F5;}
	.st4{fill:#FFD008;stroke:#B22E17;stroke-width:0.7069;stroke-miterlimit:10;}
	.st5{fill:#B22E17;}
	.st6{fill:#FEC707;stroke:#B22E17;stroke-width:0.7069;stroke-miterlimit:10;}
	.st7{fill:#B22E17;stroke:#B22E17;stroke-width:0.7069;stroke-miterlimit:10;}
	.st8{fill:none;stroke:#B22E17;stroke-width:0.7069;stroke-miterlimit:10;}
	.st9{fill:#020203;}
	.st10{clip-path:url(#SVGID_4_);fill:#F6B2A8;}
	.st11{opacity:0.15;clip-path:url(#SVGID_4_);fill:#020203;}
	.st12{clip-path:url(#SVGID_4_);}
	.st13{fill:none;stroke:#020303;stroke-width:0.9741;stroke-miterlimit:10;}
	.st14{fill:none;stroke:#3FC0F0;stroke-width:0.9741;stroke-miterlimit:10;}
	.st15{fill:#F6B1A7;}
	.st16{opacity:0.35;fill:none;stroke:#E94649;stroke-width:1.3568;stroke-miterlimit:10;}
	.st17{opacity:0.35;fill:none;stroke:#E94649;stroke-width:0.6726;stroke-miterlimit:10;}
	.st18{fill:#B37846;}
	.st19{opacity:0.36;fill:none;stroke:#E9502A;stroke-width:1.7191;stroke-miterlimit:10;}
	.st20{opacity:0.12;fill:#E9502A;}
	.st21{clip-path:url(#SVGID_6_);fill:none;stroke:#020203;stroke-width:0.8885;stroke-miterlimit:10;}
</style>
<g>
	<defs>
		<rect id="SVGID_1_" x="-903.99" y="-504.19" width="1770.01" height="1770.01"/>
	</defs>
	<clipPath id="SVGID_2_">
		<use xlink:href="#SVGID_1_"  style="overflow:visible;"/>
	</clipPath>
	<g class="st0">
		<path class="st1" d="M360.06,661.23c-6.82,12.84-8.42,25.19-3.56,27.59c4.85,2.4,14.32-6.06,21.14-18.9
			c6.82-12.84,8.42-25.19,3.56-27.59C376.34,639.93,366.88,648.4,360.06,661.23z"/>
		<g>
			<g>
				<path class="st2" d="M883.15,551.19c-201.98-90.8-343.56,74.63-534.98,19.34l-54.58-263.66
					c319.88,10.03,346.59-95.73,564.22-26.44C855.43,371.22,885.53,460.41,883.15,551.19z"/>
				<path class="st3" d="M421.62,365.86c40.28-4.02,80.09-12.28,119.18-22.69c18.9-5.04,37.45-11.16,56.25-16.5
					c20.19-5.74,40.87-9.71,61.77-11.73c42.92-4.16,86.26,0.44,128.18,10.05c24.94,5.72,49.33,13.47,73.85,20.77
					c-2.28-21.71-3.6-43.46-3.03-65.31c-217.63-69.29-244.34,36.46-564.22,26.44l11.4,55.07
					C343.24,369.85,382.88,369.72,421.62,365.86z"/>
				<path class="st3" d="M807.35,474.19c-36.81-3.04-73.92-0.04-110.34,5.55c-36.4,5.59-72.16,14.12-108.06,22.15
					c-42.91,9.6-86.43,17.46-130.43,19.43c-41.55,1.86-83.26-1.94-123.29-13.33l12.95,62.53c191.42,55.29,333-110.14,534.98-19.34
					c0.53-20.39-0.58-40.71-2.59-60.98C857.16,481.33,832.35,476.26,807.35,474.19z"/>
				<g>
					<g>
						<path class="st4" d="M579.95,403.05c-0.43,0.03-1.29-4.31-1.34-4.76c-0.28-2.24,0.28-4.32,1.36-6.28
							c1.31-2.35,2.23-4.54,1.56-7.27c-0.64-2.64-1.29-4.72-1.18-7.52c0.11-2.71,0.51-5.42,1.01-8.09
							c0.29-1.55,0.25-8.72,0.63-10.24c0.35,4.27,0.83,14.97,2.84,18.85c1.99,3.85,5.26,8.12,4.54,12.58
							c-0.61,3.79-2.79,9.52-2.06,11.45c0.14,0.36-0.1,0.74-0.48,0.77L579.95,403.05z"/>
						<path class="st4" d="M571.18,407.64c-0.36,0.23-3.13-3.19-3.4-3.57c-1.28-1.84-1.76-3.94-1.7-6.17
							c0.07-2.69-0.13-5.05-1.98-7.14c-1.79-2.02-3.34-3.56-4.53-6.07c-1.16-2.44-2.06-5.02-2.85-7.6c-0.46-1.5-3.11-8.25-3.47-9.77
							c2.29,3.6,6.96,13.25,10.53,15.72c3.55,2.46,8.43,4.68,9.85,8.95c1.21,3.63,1.93,9.71,3.48,11.06c0.29,0.25,0.25,0.7-0.07,0.9
							L571.18,407.64z"/>
						<path class="st4" d="M565.44,416.44c-0.2,0.38-4.3-1.19-4.71-1.39c-2.02-0.95-3.47-2.53-4.52-4.49
							c-1.26-2.36-2.59-4.3-5.24-5.19c-2.56-0.85-4.66-1.41-6.93-2.98c-2.21-1.53-4.26-3.31-6.23-5.15
							c-1.14-1.07-6.77-5.58-7.84-6.72c3.77,1.97,12.58,7.98,16.92,8.33c4.3,0.35,9.65-0.16,12.99,2.82
							c2.85,2.53,6.46,7.43,8.48,7.83c0.37,0.07,0.57,0.48,0.39,0.82L565.44,416.44z"/>
						<path class="st4" d="M563.94,425.99c-0.03,0.43-4.42,0.68-4.88,0.67c-2.24-0.04-4.2-0.88-5.95-2.24
							c-2.11-1.63-4.11-2.86-6.89-2.58c-2.69,0.27-4.83,0.62-7.56,0.12c-2.65-0.49-5.24-1.27-7.78-2.14
							c-1.47-0.51-8.45-2.31-9.89-2.91c4.25,0.25,14.75,2.12,18.86,0.66c4.09-1.44,8.77-4.1,13.04-2.76
							c3.63,1.14,8.92,4.12,10.92,3.66c0.37-0.09,0.71,0.2,0.68,0.58L563.94,425.99z"/>
						<path class="st4" d="M567.02,434.32c0.17,0.39-3.6,2.69-4.01,2.9c-2,1.02-4.13,1.21-6.32,0.84c-2.63-0.44-4.97-0.57-7.31,0.99
							c-2.26,1.51-3.99,2.84-6.64,3.68c-2.57,0.82-5.23,1.36-7.89,1.79c-1.54,0.25-8.57,1.96-10.12,2.11
							c3.88-1.79,14.06-5.11,17.03-8.33c2.95-3.2,5.87-7.76,10.28-8.59c3.75-0.71,9.82-0.59,11.38-1.94
							c0.29-0.25,0.73-0.16,0.88,0.19L567.02,434.32z"/>
						<path class="st4" d="M573.04,441.03c0.32,0.28-2.14,3.97-2.43,4.33c-1.39,1.78-3.24,2.86-5.39,3.46
							c-2.57,0.72-4.76,1.61-6.22,4.02c-1.42,2.33-2.44,4.27-4.48,6.16c-1.99,1.84-4.18,3.47-6.42,4.99
							c-1.29,0.89-6.96,5.43-8.3,6.23c2.77-3.27,10.62-10.62,11.96-14.8c1.33-4.15,2.07-9.51,5.72-12.15
							c3.11-2.24,8.68-4.73,9.52-6.62c0.16-0.35,0.59-0.45,0.88-0.2L573.04,441.03z"/>
						<path class="st4" d="M591.6,443.63c0.42-0.05,1.48,4.24,1.56,4.69c0.38,2.22-0.08,4.33-1.08,6.33
							c-1.2,2.41-2.02,4.64-1.23,7.33c0.76,2.61,1.5,4.66,1.52,7.45c0.02,2.72-0.26,5.44-0.64,8.12c-0.22,1.56,0.15,8.72-0.17,10.26
							c-0.54-4.25-1.51-14.91-3.68-18.69c-2.16-3.76-5.62-7.87-5.1-12.36c0.44-3.82,2.36-9.64,1.54-11.53
							c-0.15-0.35,0.07-0.75,0.44-0.79L591.6,443.63z"/>
						<path class="st4" d="M582.44,444.55c0.41,0.13-0.37,4.49-0.48,4.94c-0.56,2.19-1.82,3.93-3.54,5.36
							c-2.07,1.71-3.71,3.42-4.09,6.21c-0.36,2.7-0.51,4.89-1.63,7.45c-1.08,2.49-2.44,4.87-3.87,7.18
							c-0.83,1.34-3.39,8.04-4.3,9.33c1.22-4.12,4.65-14.27,4.2-18.63c-0.45-4.33-1.94-9.51,0.35-13.41
							c1.94-3.32,6.05-7.86,6.06-9.93c0-0.38,0.36-0.66,0.72-0.54L582.44,444.55z"/>
						<path class="st4" d="M599.8,438.29c0.35-0.24,3.28,3.04,3.55,3.4c1.36,1.78,1.93,3.85,1.97,6.09c0.05,2.69,0.35,5.04,2.3,7.04
							c1.88,1.94,3.49,3.4,4.8,5.85c1.27,2.39,2.28,4.91,3.19,7.46c0.53,1.48,3.48,8.09,3.91,9.6c-2.45-3.49-7.55-12.91-11.23-15.22
							c-3.66-2.29-8.63-4.29-10.25-8.49c-1.38-3.57-2.37-9.61-3.98-10.89c-0.3-0.24-0.29-0.69,0.03-0.91L599.8,438.29z"/>
						<path class="st4" d="M604.84,429.67c0.21-0.38,4.3,1.21,4.71,1.41c2.02,0.96,3.46,2.55,4.5,4.52
							c1.25,2.37,2.57,4.32,5.22,5.21c2.55,0.87,4.65,1.43,6.92,3.02c2.21,1.54,4.25,3.33,6.2,5.18c1.13,1.07,6.74,5.62,7.8,6.76
							c-3.76-1.99-12.54-8.05-16.87-8.42c-4.3-0.37-9.65,0.12-12.98-2.88c-2.83-2.55-6.42-7.46-8.44-7.87
							c-0.37-0.07-0.57-0.48-0.38-0.82L604.84,429.67z"/>
						<path class="st4" d="M605.74,420.66c0.02-0.43,4.39-0.88,4.84-0.89c2.24-0.06,4.23,0.69,6.05,1.97
							c2.18,1.54,4.24,2.67,7.01,2.26c2.67-0.39,4.8-0.85,7.54-0.47c2.67,0.37,5.29,1.03,7.87,1.78c1.5,0.44,8.55,1.92,10.01,2.45
							c-4.26-0.06-14.83-1.44-18.88,0.2c-4.02,1.63-8.58,4.5-12.91,3.35c-3.68-0.97-9.1-3.71-11.08-3.15
							c-0.37,0.1-0.72-0.17-0.71-0.55L605.74,420.66z"/>
						<path class="st4" d="M602.42,411.87c-0.19-0.39,3.48-2.85,3.88-3.08c1.95-1.11,4.07-1.4,6.27-1.13c2.64,0.32,5,0.34,7.26-1.32
							c2.19-1.61,3.86-3.02,6.47-3.98c2.53-0.94,5.17-1.6,7.81-2.15c1.53-0.32,8.47-2.35,10.02-2.57c-3.8,1.96-13.81,5.75-16.64,9.1
							c-2.8,3.33-5.51,8.02-9.88,9.05c-3.71,0.88-9.79,1.04-11.29,2.46c-0.28,0.26-0.72,0.19-0.89-0.15L602.42,411.87z"/>
						<path class="st4" d="M596.66,405.67c-0.31-0.3,2.31-3.87,2.61-4.22c1.46-1.72,3.36-2.72,5.52-3.23
							c2.6-0.61,4.82-1.41,6.39-3.75c1.51-2.27,2.61-4.16,4.74-5.97c2.07-1.76,4.32-3.29,6.62-4.72c1.33-0.83,7.18-5.13,8.56-5.87
							c-2.91,3.15-11.05,10.16-12.57,14.28c-1.51,4.09-2.47,9.42-6.23,11.9c-3.2,2.11-8.86,4.35-9.79,6.21
							c-0.17,0.34-0.61,0.43-0.89,0.16L596.66,405.67z"/>
						<path class="st4" d="M589.07,402.55c-0.4-0.16,0.69-4.45,0.84-4.89c0.71-2.14,2.1-3.79,3.92-5.08
							c2.18-1.56,3.95-3.13,4.52-5.89c0.55-2.67,0.87-4.84,2.16-7.31c1.26-2.41,2.78-4.68,4.38-6.88c0.92-1.27,4.74-7.47,5.74-8.68
							c-1.52,4.02-6.45,13.59-6.32,17.97c0.14,4.35,1.24,9.64-1.32,13.36c-2.18,3.17-6.6,7.4-6.76,9.46
							c-0.03,0.38-0.41,0.63-0.76,0.49L589.07,402.55z"/>
						<g>
							<path class="st5" d="M577.86,408.97c-0.24-0.04-0.09-2.55-0.05-2.81c0.17-1.27,0.77-2.33,1.64-3.25
								c1.05-1.1,1.87-2.17,1.89-3.76c0.03-1.54-0.03-2.78,0.43-4.3c0.45-1.47,1.05-2.9,1.71-4.29c0.38-0.81,1.38-4.75,1.81-5.53
								c-0.42,2.4-1.69,8.34-1.14,10.76c0.54,2.4,1.71,5.22,0.68,7.57c-0.88,1.99-2.89,4.82-2.76,5.99
								c0.02,0.21-0.16,0.39-0.37,0.35L577.86,408.97z"/>
							<path class="st5" d="M572.79,411.61c-0.23,0.09-1.41-2.11-1.52-2.35c-0.52-1.16-0.57-2.38-0.3-3.62
								c0.32-1.49,0.46-2.83-0.35-4.19c-0.79-1.32-1.48-2.34-1.88-3.86c-0.39-1.48-0.62-3.01-0.79-4.54
								c-0.1-0.88-0.86-4.93-0.91-5.82c0.9,2.25,2.48,8.12,4.21,9.88c1.72,1.75,4.2,3.5,4.54,6.04c0.3,2.15,0.06,5.62,0.78,6.54
								c0.13,0.17,0.07,0.42-0.13,0.5L572.79,411.61z"/>
							<path class="st5" d="M569.19,419.36c-0.16,0.19-2.24-1.18-2.44-1.34c-1-0.77-1.62-1.82-1.96-3.04
								c-0.41-1.46-0.92-2.7-2.28-3.51c-1.31-0.78-2.41-1.35-3.48-2.49c-1.04-1.12-1.96-2.35-2.83-3.61
								c-0.5-0.73-3.07-3.92-3.53-4.68c1.85,1.55,6,5.95,8.36,6.67c2.34,0.72,5.35,1.08,6.85,3.14c1.27,1.75,2.68,4.9,3.75,5.37
								c0.2,0.09,0.26,0.33,0.12,0.5L569.19,419.36z"/>
							<path class="st5" d="M570.54,428.2c-0.08,0.23-2.52-0.24-2.77-0.31c-1.22-0.33-2.18-1.07-2.96-2.06
								c-0.93-1.19-1.87-2.14-3.43-2.37c-1.51-0.22-2.74-0.33-4.16-0.98c-1.39-0.64-2.7-1.42-3.98-2.26
								c-0.74-0.48-4.32-2.44-5.03-2.97c2.3,0.73,7.8,3.21,10.26,2.98c2.44-0.23,5.37-1.04,7.53,0.29c1.84,1.13,4.33,3.51,5.5,3.53
								c0.21,0,0.36,0.21,0.29,0.42L570.54,428.2z"/>
							<path class="st5" d="M574.55,433.94c0.04,0.24-2.33,1.01-2.59,1.07c-1.23,0.3-2.43,0.12-3.59-0.37
								c-1.39-0.59-2.66-0.98-4.15-0.42c-1.44,0.53-2.57,1.04-4.13,1.15c-1.52,0.11-3.06,0.06-4.58-0.06
								c-0.88-0.07-4.97-0.05-5.84-0.17c2.37-0.47,8.4-0.96,10.46-2.34c2.04-1.38,4.24-3.5,6.78-3.38c2.16,0.1,5.48,0.98,6.52,0.44
								c0.19-0.1,0.42,0.01,0.46,0.22L574.55,433.94z"/>
							<path class="st5" d="M578.08,436.29c0.16,0.19-1.52,2.05-1.71,2.23c-0.92,0.89-2.05,1.34-3.29,1.5
								c-1.5,0.2-2.8,0.52-3.81,1.75c-0.98,1.19-1.71,2.2-3.01,3.09c-1.26,0.87-2.62,1.6-4,2.28c-0.8,0.39-4.33,2.48-5.15,2.82
								c1.82-1.61,6.8-5.1,7.89-7.33c1.08-2.22,1.92-5.17,4.18-6.35c1.92-1.01,5.24-1.95,5.87-2.94c0.12-0.18,0.37-0.21,0.51-0.04
								L578.08,436.29z"/>
							<path class="st5" d="M590.81,434.34c0.24,0.01,0.45,2.51,0.45,2.77c0.01,1.28-0.43,2.42-1.17,3.45
								c-0.89,1.24-1.54,2.41-1.34,3.99c0.19,1.53,0.42,2.75,0.18,4.31c-0.23,1.52-0.63,3.02-1.09,4.49
								c-0.26,0.85-0.7,4.89-1.01,5.73c0.08-2.43,0.49-8.48-0.39-10.8c-0.87-2.3-2.44-4.92-1.75-7.38c0.59-2.1,2.18-5.18,1.89-6.32
								c-0.05-0.21,0.1-0.41,0.32-0.4L590.81,434.34z"/>
							<path class="st5" d="M584.99,439.12c0.21,0.11-0.66,2.47-0.77,2.71c-0.53,1.16-1.41,2.01-2.51,2.63
								c-1.32,0.74-2.41,1.53-2.9,3.05c-0.47,1.47-0.78,2.67-1.66,3.99c-0.85,1.28-1.85,2.47-2.88,3.61
								c-0.6,0.66-2.7,4.14-3.33,4.77c1.1-2.17,4.03-7.49,4.22-9.97c0.19-2.46-0.12-5.51,1.55-7.45c1.42-1.65,4.16-3.77,4.38-4.92
								c0.04-0.21,0.27-0.33,0.46-0.23L584.99,439.12z"/>
							<path class="st5" d="M594.02,431.66c0.21-0.13,1.78,1.8,1.93,2.02c0.73,1.04,1,2.23,0.97,3.5c-0.04,1.52,0.08,2.86,1.13,4.04
								c1.02,1.14,1.89,2.01,2.57,3.43c0.66,1.38,1.17,2.84,1.62,4.3c0.26,0.85,1.77,4.67,1.98,5.53c-1.3-2.04-3.95-7.5-5.98-8.9
								c-2.01-1.39-4.78-2.64-5.59-5.06c-0.69-2.06-1.1-5.5-1.98-6.26c-0.16-0.14-0.15-0.4,0.04-0.51L594.02,431.66z"/>
							<path class="st5" d="M595.64,425.31c0.13-0.21,2.4,0.79,2.63,0.92c1.12,0.6,1.89,1.53,2.43,2.67
								c0.65,1.37,1.35,2.51,2.82,3.08c1.42,0.55,2.6,0.93,3.84,1.88c1.21,0.93,2.32,1.99,3.38,3.09c0.61,0.64,3.67,3.35,4.25,4.02
								c-2.08-1.22-6.9-4.87-9.34-5.19c-2.43-0.32-5.46-0.18-7.27-1.96c-1.54-1.51-3.45-4.39-4.58-4.67
								c-0.21-0.05-0.31-0.29-0.2-0.47L595.64,425.31z"/>
							<path class="st5" d="M596.37,420.23c0.02-0.24,2.5-0.39,2.76-0.38c1.27,0.02,2.38,0.49,3.37,1.26
								c1.19,0.92,2.33,1.62,3.91,1.45c1.52-0.16,2.74-0.36,4.28-0.08c1.5,0.27,2.97,0.71,4.41,1.21c0.84,0.29,4.79,1.3,5.61,1.64
								c-2.41-0.14-8.36-1.18-10.69-0.36c-2.31,0.82-4.97,2.33-7.39,1.58c-2.06-0.64-5.06-2.33-6.19-2.06
								c-0.21,0.05-0.4-0.11-0.39-0.33L596.37,420.23z"/>
							<path class="st5" d="M594.52,413.89c-0.07-0.23,2.18-1.31,2.42-1.4c1.18-0.46,2.39-0.45,3.61-0.11
								c1.45,0.4,2.77,0.61,4.17-0.14c1.36-0.72,2.41-1.37,3.95-1.7c1.5-0.32,3.03-0.47,4.55-0.56c0.88-0.05,4.94-0.62,5.82-0.61
								c-2.29,0.79-8.21,2.08-10.06,3.73c-1.84,1.64-3.74,4.04-6.27,4.26c-2.15,0.19-5.57-0.23-6.52,0.45
								c-0.18,0.12-0.42,0.05-0.48-0.16L594.52,413.89z"/>
							<path class="st5" d="M590.95,408.99c-0.13-0.2,1.77-1.84,1.98-1.99c1.02-0.76,2.2-1.06,3.46-1.06c1.51,0,2.84-0.15,4-1.24
								c1.12-1.06,1.97-1.96,3.37-2.68c1.36-0.7,2.8-1.25,4.25-1.75c0.84-0.29,4.61-1.9,5.46-2.13c-2.01,1.36-7.39,4.18-8.75,6.26
								c-1.35,2.07-2.56,4.88-4.95,5.77c-2.03,0.75-5.44,1.25-6.19,2.16c-0.14,0.17-0.39,0.16-0.51-0.02L590.95,408.99z"/>
							<path class="st5" d="M585.78,407.05c-0.21-0.13,0.81-2.42,0.93-2.65c0.6-1.13,1.53-1.92,2.67-2.47
								c1.37-0.66,2.5-1.37,3.08-2.86c0.56-1.44,0.94-2.62,1.9-3.88c0.93-1.23,1.99-2.35,3.09-3.42c0.64-0.62,3.35-3.72,4.02-4.3
								c-1.23,2.1-4.89,6.98-5.23,9.44c-0.34,2.45-0.22,5.51-2,7.34c-1.51,1.56-4.38,3.5-4.67,4.64c-0.05,0.21-0.29,0.31-0.47,0.2
								L585.78,407.05z"/>
						</g>
						<path class="st6" d="M606.46,422c0.79,11.99-8.22,22.43-20.12,23.3c-11.9,0.88-22.19-8.14-22.99-20.13
							c-0.79-11.99,8.22-22.43,20.12-23.3C595.38,400.99,605.67,410.01,606.46,422z"/>
					</g>
					<g>
						<path class="st7" d="M575.77,423.5c0.06,0.84-0.44,1.56-1.11,1.61c-0.67,0.05-1.26-0.59-1.31-1.44
							c-0.06-0.84,0.44-1.56,1.11-1.61C575.12,422.01,575.71,422.66,575.77,423.5z"/>
						<path class="st7" d="M595.93,422.01c0.06,0.84-0.44,1.56-1.11,1.61c-0.67,0.05-1.26-0.59-1.31-1.44s0.44-1.57,1.11-1.61
							C595.28,420.53,595.87,421.17,595.93,422.01z"/>
						<path class="st8" d="M569.04,421.13c0.44-0.59,1.8-2.27,4.24-3.03c0.33-0.1,2.95-0.87,5.69,0.33c2.96,1.3,4.93,4.41,5.2,8
							c0.91-0.07,1.82-0.13,2.72-0.2"/>
						<path class="st8" d="M588.01,419.13c0,0,5.55-6.22,12.67-0.68"/>
						<path class="st8" d="M580.59,430.03c0.93,0.4,2.74,1.03,5.09,0.9c2.55-0.15,4.4-1.12,5.28-1.66"/>
						<line class="st8" x1="585.04" y1="433.35" x2="586.98" y2="433.21"/>
					</g>
				</g>
			</g>
			<g>
				<g>
					<path class="st9" d="M394.24,793.07l-16.98,4.79L271.74,288.15c0.31-0.64,2.42-4.78,7.17-6.35c5.31-1.74,9.38,1.23,9.81,1.55
						C323.89,453.26,359.07,623.17,394.24,793.07z"/>
				</g>
				<circle class="st9" cx="277.46" cy="269.27" r="20.23"/>
			</g>
		</g>
	</g>
	<g class="st0">
		<g>
			<g>
				<defs>
					<path id="SVGID_3_" d="M370.23,909.02c-84.96,11.08-85.16-29.56-77.32-92.29c3.44-27.51,8.7-56.29,16.14-84.85
						c0,0,26.16-86.59,58.79-83.23c3.34,0.34,6.48,1.83,8.96,4.09c2.81,2.57,5.71,6.64,2.92,11.09c0,0,10.8-3.6,11.67,9.15
						c0,0,10.74-1.62,8.3,11.21c-2.44,12.83-9.51,27.08-26.43,45.16l-6.75,82.92c0,0,157.33-79.37,211.12-60.87l17.42-53.74
						l52.97,13.12l-11.88,61.09c0,0,84.66-51.97,142.78,131.46c0,0,46.81,135.33-56.07,123.15C619.99,1014.3,457.65,885,457.65,885
						S384.47,907.17,370.23,909.02z"/>
				</defs>
				<clipPath id="SVGID_4_">
					<use xlink:href="#SVGID_3_"  style="overflow:visible;"/>
				</clipPath>
				<path class="st10" d="M370.23,909.02c-84.96,11.08-85.16-29.56-77.32-92.29c3.44-27.51,8.7-56.29,16.14-84.85
					c0,0,26.16-86.59,58.79-83.23c3.34,0.34,6.48,1.83,8.96,4.09c2.81,2.57,5.71,6.64,2.92,11.09c0,0,10.8-3.6,11.67,9.15
					c0,0,10.74-1.62,8.3,11.21c-2.44,12.83-9.51,27.08-26.43,45.16l-6.75,82.92c0,0,157.33-79.37,211.12-60.87l17.42-53.74
					l52.97,13.12l-11.88,61.09c0,0,84.66-51.97,142.78,131.46c0,0,46.81,135.33-56.07,123.15C619.99,1014.3,457.65,885,457.65,885
					S384.47,907.17,370.23,909.02z"/>
				<polygon class="st11" points="640.83,747.8 648.03,710.79 595.06,697.67 580.79,741.69 				"/>
				<g class="st12">
					<line class="st13" x1="383.46" y1="659.78" x2="365.59" y2="678.81"/>
					<line class="st13" x1="372.38" y1="649.38" x2="354.52" y2="668.41"/>
					<line class="st13" x1="393.05" y1="671.41" x2="377.99" y2="688.59"/>
				</g>
			</g>
			<g>
				<g>
					<path class="st2" d="M411.8,784.14l-24.89,125.45c0,0,0,0,68.51-15.16l-46.19,195.35l279.32,40.19l-9.67-174.47l117.24,3.97
						c0,0-26.42-185.7-126.14-197.76c0,0-28.5,56.32-75.53,48.99c-47.03-7.33-31.46-69.1-31.46-69.1S495.98,729.96,411.8,784.14z"/>
				</g>
				<g>
					<path class="st3" d="M649.42,944.72c10.93-60.32,21.23-120.83,27.74-181.8c-2.35-0.5-4.74-0.93-7.17-1.22
						c0,0-26.58,52.5-70.75,49.52c-3.54,27.66-8.93,55.06-14.72,82.33c-6,28.28-11.96,56.53-17.39,84.93
						c-5.53,28.95-10.85,57.93-16.12,86.93c-2.65,14.54-5.28,29.09-7.93,43.64l75.68,10.89
						C627.69,1061.31,638.85,1003.06,649.42,944.72z"/>
					<path class="st3" d="M730.25,849.59c-0.46,35.86-1.92,71.69-3.45,107.52l69.33,2.35c0,0-15.22-106.81-66.07-163.67
						C730.44,813.72,730.48,831.66,730.25,849.59z"/>
					<path class="st3" d="M456.15,1096.53c2.11-9.99,4.22-19.99,6.34-29.98c13.04-61.37,26.42-122.69,41.32-183.64
						c7.41-30.31,15.18-60.52,22.55-90.84c4.15-17.05,8.15-34.14,11.73-51.32c-16.84,0.78-41.24,4.19-70.16,15
						c-1.98,9.17-4.07,18.31-6.26,27.42c-9.05,37.59-21.17,79.85-31.99,116.96l25.74-5.7l-46.19,195.35L456.15,1096.53z"/>
				</g>
			</g>
			<line class="st14" x1="686.07" y1="844" x2="678.88" y2="955.49"/>
			<line class="st14" x1="455.42" y1="894.43" x2="485.08" y2="803.1"/>
		</g>
		<g>
			<g>
				<path class="st15" d="M749.9,643.78c-5.14-9.92-16.83-14.62-28.99-12.78c8.04-59.36-23.12-112.71-70.02-119.48
					c-41.78-6.03-82.03,26.93-96.74,76.06c-8.05-5.05-17.58-6.16-25.59-2.01c-13.06,6.77-17.1,24.9-9.02,40.49
					c6.43,12.41,18.6,19.44,29.88,18.4c5.69,43.73,32.98,78.42,70.19,83.79c32.39,4.68,63.86-14.08,83.23-45.62
					c8.59,4.82,20.43,4.97,31.09-0.56C749.52,673.98,756.67,656.84,749.9,643.78z"/>
				<line class="st16" x1="545.27" y1="622.37" x2="532.18" y2="599.8"/>
				<line class="st16" x1="716.49" y1="667.36" x2="738.35" y2="653.11"/>
				<line class="st17" x1="551.52" y1="633.62" x2="549.41" y2="644.46"/>
				<line class="st17" x1="706.97" y1="672.54" x2="702.87" y2="682.79"/>
			</g>
			<g>
				<path class="st18" d="M538.56,515.1c7.43-31.07,40.73-49.73,74.36-41.69c9.51,2.28,17.98,6.49,25.15,12
					c7.02-6.53,15.7-11.32,25.6-13.51c31.01-6.88,62.04,14.06,69.3,46.78c1.25,5.62,1.66,11.21,1.42,16.67
					c17.6-5.04,48.6-8.16,30.97,40.52c-23.96,66.14-47.86,79.69-47.86,79.69l-12.14-2.9l11.67-31.61
					c-8.63-2.38-16.05-8.69-19.43-17.71c-1.83-4.88-2.23-9.93-1.45-14.73c-2,0.7-4.06,1.31-6.17,1.78
					c-18.75,4.16-37.47-1.9-50.98-14.54c-14.28,10.41-33.56,14.71-52.98,10.06c-4-0.96-7.81-2.27-11.44-3.86l-15.54,37.64l-12-4.22
					c0.62-2.56,7.12-27.91,11.62-43.26C541.91,558.17,533.44,536.48,538.56,515.1z"/>
			</g>
			<g>
				<path class="st9" d="M606.81,620.89c-1.23,4.6-4.57,7.7-7.48,6.93c-2.9-0.77-4.27-5.13-3.04-9.73c1.23-4.6,4.57-7.7,7.48-6.93
					C606.67,611.94,608.03,616.3,606.81,620.89z"/>
				<path class="st9" d="M674.67,639.52c-1.23,4.6-4.57,7.7-7.48,6.93c-2.9-0.77-4.27-5.13-3.04-9.73c1.23-4.6,4.57-7.7,7.48-6.93
					C674.53,630.56,675.89,634.92,674.67,639.52z"/>
				<polyline class="st19" points="637.68,617.94 624.85,646.9 635.82,649.83 				"/>
				<path class="st20" d="M603.31,656.87c-3.48,13.07-16.9,20.84-29.97,17.35c-13.07-3.48-20.84-16.9-17.35-29.97
					c3.48-13.07,16.9-20.84,29.97-17.35C599.03,630.38,606.8,643.8,603.31,656.87z"/>
				<path class="st20" d="M694.84,683.56c-3.48,13.07-16.9,20.84-29.97,17.35c-13.07-3.48-20.84-16.9-17.35-29.97
					c3.48-13.07,16.9-20.84,29.97-17.35C690.55,657.08,698.32,670.49,694.84,683.56z"/>
				<g>
					<path class="st9" d="M588.23,590.16c1.3-2.47,3.6-4.3,6.11-5.54c2.54-1.24,5.39-1.85,8.21-1.89l2.11,0.1
						c0.71,0.03,1.39,0.2,2.08,0.31c1.39,0.21,2.7,0.69,3.99,1.16c1.29,0.49,2.48,1.19,3.66,1.85c1.13,0.78,2.21,1.62,3.19,2.57
						c-1.4-0.08-2.7-0.31-3.97-0.53c-1.3-0.12-2.53-0.39-3.77-0.52c-1.24-0.1-2.45-0.33-3.66-0.36c-1.21-0.13-2.4-0.11-3.59-0.15
						c-2.37,0.05-4.72,0.25-7.09,0.74C593.13,588.38,590.75,589.08,588.23,590.16z"/>
				</g>
				<g>
					<path class="st9" d="M670.57,603.43c2.45-1.35,5.37-1.6,8.16-1.25c2.8,0.37,5.51,1.43,7.9,2.95l1.71,1.24
						c0.57,0.41,1.05,0.93,1.56,1.41c1.04,0.94,1.87,2.06,2.69,3.16c0.8,1.12,1.41,2.36,2.03,3.57c0.51,1.27,0.95,2.57,1.24,3.91
						c-1.13-0.84-2.08-1.75-3.02-2.63c-1.02-0.81-1.89-1.72-2.86-2.51c-0.98-0.77-1.86-1.63-2.86-2.32
						c-0.93-0.78-1.94-1.41-2.91-2.1c-2.01-1.27-4.08-2.4-6.32-3.3C675.64,604.65,673.27,603.92,670.57,603.43z"/>
				</g>
				<g>
					<path class="st2" d="M616.77,682.49c5.94,2.05,11.86,3.01,18.16,2.73c6.15-0.27,13.79-2.33,18.58-6.4
						c3.1-2.64,6.69-5.6,7.35-9.87c1.78-11.47-16.18-7.92-22.24-8.47c-6.26-0.56-12.34-1.83-18.22-4c-4.59-1.69-8.53-4.69-12.94-6.8
						c-4.4-2.11-10.06-3.66-14.26-0.85c-2.2,1.47-3,4.99-2.56,7.44c0.41,2.32,1.31,4.36,2.4,6.3c3.17,5.66,7.63,10.51,12.95,14.21
						C609.14,678.97,612.88,681.14,616.77,682.49z"/>
				</g>
			</g>
			<g>
				<defs>
					<path id="SVGID_5_" d="M616.59,682.44c5.93,2.08,11.85,3.07,18.15,2.81c6.15-0.25,13.81-2.26,18.61-6.31
						c3.12-2.62,6.71-5.57,7.39-9.84c1.83-11.46-16.14-8-22.2-8.57c-6.26-0.59-12.33-1.89-18.21-4.08
						c-4.58-1.71-8.51-4.73-12.9-6.86c-4.39-2.13-10.04-3.7-14.25-0.92c-2.2,1.46-3.02,4.97-2.6,7.43c0.4,2.32,1.29,4.36,2.37,6.31
						c3.14,5.67,7.58,10.54,12.89,14.27C608.97,678.88,612.7,681.08,616.59,682.44z"/>
				</defs>
				<clipPath id="SVGID_6_">
					<use xlink:href="#SVGID_5_"  style="overflow:visible;"/>
				</clipPath>
				<line class="st21" x1="613.48" y1="646.98" x2="603.19" y2="678.91"/>
				<line class="st21" x1="629.16" y1="653.66" x2="620.36" y2="687.3"/>
				<line class="st21" x1="644.45" y1="657.92" x2="638.62" y2="690.98"/>
			</g>
		</g>
	</g>
</g>
</svg>
